/* XPM */
static char *f677c9474daf44c3ab44804a5e5efcb4i5JGdz93H7uPf1fG[] = {
/* columns rows colors chars-per-pixel */
"32 32 19 1 ",
"  c None",
". c #272B69",
"X c #272C6A",
"o c #272D6B",
"O c #282D6B",
"+ c #282E6B",
"@ c #282E6C",
"# c #F59729",
"$ c #F59829",
"% c #F59929",
"& c #F69929",
"* c #F4B525",
"= c #F4B625",
"- c #4282C4",
"; c #4283C5",
": c #4383C5",
"> c #4384C5",
", c #4384C6",
"< c #4385C7",
/* pixels */
"              ****              ",
"            ********            ",
"           *********            ",
"           **********           ",
"           **********           ",
"    $$$$$  **********  $$$$$    ",
"   $$$$$$# ********** #$$$$$$   ",
"   $$$$$$$ ********** $$$$$$$   ",
"   $$$$$$$$ ******** $$$$$$$$   ",
"   $$$$$$$   ******   $$$$$$$   ",
"   $$$$$$$    ****    $$$$$$$   ",
"    $$$$$              $$$$$    ",
"      $$                $$      ",
"          ------------          ",
"   @@@  ----------------  @@@   ",
" @@@@+ ------------------ +@@@@ ",
"@@@@@+ ------------------ +@@@@@",
"@@@@@+ -----------------> +@@@@@",
"@@@@@@ >----------------> @@@@@@",
" @@@@@o ---------------- +@@@@@ ",
" @@@@@o ---------------- o@@@@@ ",
" @@@@@+ ---------------- +@@@@@ ",
" @@@@@@ >--------------> @@@@@@ ",
"  @@@@@  --------------  @@@@@  ",
"  @@@@@. -------------- o@@@@@  ",
"  @@@@@+ -------------- +@@@@@  ",
"   @@@@@ >------------> @@@@@   ",
"    @@@@ -------------  @@@@    ",
"          ------------          ",
"          ------------          ",
"           ----------           ",
"             ------             "
};
